# MagicaVoxel @ Ephtracy

# material
mtllib cow.mtl
usemtl palette

# normals
vn -1 0 0
vn 1 0 0
vn 0 0 1
vn 0 0 -1
vn 0 -1 0
vn 0 1 0

# texcoords
vt 0.0214844 0.5
vt 0.310547 0.5
vt 0.404297 0.5
vt 0.912109 0.5
vt 0.916016 0.5
vt 0.986328 0.5
vt 0.994141 0.5

# verts
v -4 0 5
v -4 0 3
v -4 0 -3
v -4 0 -5
v -4 2 5
v -4 2 4
v -4 3 5
v -4 3 4
v -4 4 -4
v -4 4 -5
v -4 6 5
v -4 6 4
v -4 6 3
v -4 6 -3
v -4 6 -4
v -4 6 -5
v -4 7 1
v -4 7 -2
v -4 8 5
v -4 8 4
v -4 8 -0
v -4 8 -2
v -4 8 -4
v -4 8 -5
v -4 9 5
v -4 9 1
v -4 9 -0
v -4 9 -4
v -4 9 -5
v -4 12 4
v -4 12 3
v -4 13 4
v -4 13 3
v -4 14 4
v -4 14 3
v -3 4 3
v -3 4 1
v -3 4 -1
v -3 4 -3
v -3 5 1
v -3 5 -1
v -3 6 3
v -3 6 -3
v -3 7 -5
v -3 7 -6
v -3 8 -5
v -3 8 -6
v -3 9 5
v -3 9 1
v -3 9 -0
v -3 9 -4
v -3 9 -5
v -3 9 -6
v -3 10 8
v -3 10 7
v -3 10 5
v -3 10 -4
v -3 10 -5
v -3 11 8
v -3 11 7
v -2 5 7
v -2 5 6
v -2 7 7
v -2 7 6
v -2 9 8
v -2 9 7
v -2 10 8
v -2 10 7
v -2 10 6
v -2 10 5
v -2 10 3
v -2 11 8
v -2 11 7
v -2 12 8
v -2 12 7
v -2 12 6
v -2 12 4
v -2 12 3
v -2 12 2
v -2 13 7
v -2 13 6
v -2 13 4
v -2 13 3
v -2 13 2
v -2 14 7
v -2 14 6
v -2 14 4
v -2 14 3
v -2 15 6
v -2 15 4
v -2 15 3
v -2 16 4
v -2 16 3
v -1 2 -1
v -1 2 -3
v -1 4 -1
v -1 4 -3
v -1 7 7
v -1 7 6
v -1 7 5
v -1 8 7
v -1 8 6
v -1 8 5
v -1 8 -8
v -1 8 -9
v -1 9 7
v -1 9 6
v -1 9 -8
v -1 9 -9
v -1 9 -10
v -1 10 8
v -1 10 7
v -1 10 6
v -1 10 5
v -1 10 -9
v -1 10 -10
v -1 11 8
v -1 11 7
v -1 11 3
v -1 11 2
v -1 12 3
v -1 12 2
v -1 13 3
v -1 13 2
v -1 14 3
v -1 14 2
v 0 7 -6
v 0 7 -8
v 0 8 -6
v 0 8 -8
v 1 15 4
v 1 15 3
v 1 16 4
v 1 16 3
v 2 0 5
v 2 0 3
v 2 0 -3
v 2 0 -5
v 2 4 4
v 2 4 3
v 2 4 -3
v 2 4 -4
v 2 6 5
v 2 6 4
v 2 6 -4
v 2 6 -5
v 2 10 8
v 2 10 7
v 2 11 8
v 2 11 7
v -2 0 5
v -2 0 3
v -2 0 -3
v -2 0 -5
v -2 4 4
v -2 4 3
v -2 4 -3
v -2 4 -4
v -2 6 5
v -2 6 4
v -2 6 -4
v -2 6 -5
v -2 10 8
v -2 10 7
v -2 11 8
v -2 11 7
v -1 15 4
v -1 15 3
v -1 16 4
v -1 16 3
v 0 8 -8
v 0 8 -9
v 0 9 -8
v 0 9 -9
v 0 9 -10
v 0 10 -9
v 0 10 -10
v 1 2 -1
v 1 2 -3
v 1 4 -1
v 1 4 -3
v 1 7 7
v 1 7 6
v 1 7 5
v 1 7 -6
v 1 7 -8
v 1 8 7
v 1 8 6
v 1 8 5
v 1 8 -6
v 1 8 -8
v 1 9 7
v 1 9 6
v 1 10 8
v 1 10 7
v 1 10 6
v 1 10 5
v 1 11 8
v 1 11 7
v 1 11 3
v 1 11 2
v 1 12 3
v 1 12 2
v 1 13 3
v 1 13 2
v 1 14 3
v 1 14 2
v 2 5 7
v 2 5 6
v 2 7 7
v 2 7 6
v 2 9 8
v 2 9 7
v 2 10 8
v 2 10 7
v 2 10 6
v 2 10 5
v 2 10 3
v 2 11 8
v 2 11 7
v 2 12 8
v 2 12 7
v 2 12 6
v 2 12 4
v 2 12 3
v 2 12 2
v 2 13 7
v 2 13 6
v 2 13 4
v 2 13 3
v 2 13 2
v 2 14 7
v 2 14 6
v 2 14 5
v 2 14 4
v 2 14 3
v 2 15 6
v 2 15 5
v 2 15 4
v 2 15 3
v 2 16 4
v 2 16 3
v 3 4 3
v 3 4 -3
v 3 6 3
v 3 6 -0
v 3 6 -3
v 3 7 -5
v 3 7 -6
v 3 9 5
v 3 9 3
v 3 9 -0
v 3 9 -5
v 3 9 -6
v 3 10 8
v 3 10 7
v 3 10 5
v 3 10 -5
v 3 11 8
v 3 11 7
v 4 0 5
v 4 0 3
v 4 0 -3
v 4 0 -5
v 4 3 5
v 4 3 4
v 4 5 5
v 4 5 4
v 4 6 3
v 4 6 -0
v 4 6 -3
v 4 7 -0
v 4 7 -1
v 4 8 3
v 4 8 -0
v 4 8 -1
v 4 8 -3
v 4 9 5
v 4 9 3
v 4 9 -0
v 4 9 -5
v 4 12 4
v 4 12 3
v 4 14 4
v 4 14 3
v -3 10 8
v -3 11 8
v -2 9 8
v -2 10 8
v -2 11 8
v -2 12 8
v -1 10 8
v -1 11 8
v 1 10 8
v 1 11 8
v 2 9 8
v 2 10 8
v 2 11 8
v 2 12 8
v 3 10 8
v 3 11 8
v -2 5 7
v -2 7 7
v -2 10 7
v -2 11 7
v -2 12 7
v -2 13 7
v -2 14 7
v -1 7 7
v -1 8 7
v -1 10 7
v -1 11 7
v -1 12 7
v -1 13 7
v 1 7 7
v 1 8 7
v 1 10 7
v 1 11 7
v 1 12 7
v 1 13 7
v 2 5 7
v 2 7 7
v 2 10 7
v 2 11 7
v 2 12 7
v 2 13 7
v 2 14 7
v -2 14 6
v -2 15 6
v -1 8 6
v -1 9 6
v 0 14 6
v 0 15 6
v 1 8 6
v 1 9 6
v 2 14 6
v 2 15 6
v -4 0 5
v -4 2 5
v -4 3 5
v -4 6 5
v -4 8 5
v -4 9 5
v -3 2 5
v -3 3 5
v -3 6 5
v -3 8 5
v -3 9 5
v -3 10 5
v -2 0 5
v -2 6 5
v -2 10 5
v -1 7 5
v -1 8 5
v -1 10 5
v 1 7 5
v 1 8 5
v 1 10 5
v 2 0 5
v 2 6 5
v 2 10 5
v 3 3 5
v 3 5 5
v 3 9 5
v 3 10 5
v 4 0 5
v 4 3 5
v 4 5 5
v 4 9 5
v -4 12 4
v -4 13 4
v -4 14 4
v -3 12 4
v -3 13 4
v -3 14 4
v -2 4 4
v -2 6 4
v -2 12 4
v -2 13 4
v -2 14 4
v -2 15 4
v -2 16 4
v -1 15 4
v -1 16 4
v 1 15 4
v 1 16 4
v 2 4 4
v 2 6 4
v 2 12 4
v 2 13 4
v 2 14 4
v 2 15 4
v 2 16 4
v 3 12 4
v 3 13 4
v 4 12 4
v 4 14 4
v -1 2 -1
v -1 4 -1
v 1 2 -1
v 1 4 -1
v -4 0 -3
v -4 6 -3
v -3 4 -3
v -3 6 -3
v -2 0 -3
v -2 4 -3
v 2 0 -3
v 2 4 -3
v 3 4 -3
v 3 6 -3
v 4 0 -3
v 4 6 -3
v -1 8 -8
v -1 9 -8
v 0 8 -8
v 0 9 -8
v -1 9 -9
v -1 10 -9
v 0 9 -9
v 0 10 -9
v -3 10 7
v -3 11 7
v -2 9 7
v -2 10 7
v -2 11 7
v -1 9 7
v -1 10 7
v 1 9 7
v 1 10 7
v 2 9 7
v 2 10 7
v 2 11 7
v 3 10 7
v 3 11 7
v -2 5 6
v -2 7 6
v -1 7 6
v 1 7 6
v 2 5 6
v 2 7 6
v -4 0 3
v -4 6 3
v -4 12 3
v -4 13 3
v -4 14 3
v -3 4 3
v -3 6 3
v -3 12 3
v -3 13 3
v -3 14 3
v -2 0 3
v -2 4 3
v -2 10 3
v -2 12 3
v -2 13 3
v -2 14 3
v -2 15 3
v -2 16 3
v -1 11 3
v -1 12 3
v -1 13 3
v -1 14 3
v -1 15 3
v -1 16 3
v 1 11 3
v 1 12 3
v 1 13 3
v 1 14 3
v 1 15 3
v 1 16 3
v 2 0 3
v 2 4 3
v 2 10 3
v 2 12 3
v 2 13 3
v 2 14 3
v 2 15 3
v 2 16 3
v 3 4 3
v 3 6 3
v 3 12 3
v 3 13 3
v 4 0 3
v 4 6 3
v 4 12 3
v 4 14 3
v -2 12 2
v -2 13 2
v -1 11 2
v -1 12 2
v -1 13 2
v -1 14 2
v 1 11 2
v 1 12 2
v 1 13 2
v 1 14 2
v 2 12 2
v 2 13 2
v -1 2 -3
v -1 4 -3
v 1 2 -3
v 1 4 -3
v -2 4 -4
v -2 6 -4
v 2 4 -4
v 2 6 -4
v -4 0 -5
v -4 4 -5
v -4 6 -5
v -4 8 -5
v -4 9 -5
v -3 4 -5
v -3 6 -5
v -3 7 -5
v -3 8 -5
v -3 9 -5
v -3 10 -5
v -2 0 -5
v -2 6 -5
v -2 9 -5
v -2 10 -5
v 2 0 -5
v 2 6 -5
v 3 7 -5
v 3 9 -5
v 3 10 -5
v 4 0 -5
v 4 9 -5
v -3 7 -6
v -3 8 -6
v -3 9 -6
v -2 8 -6
v -2 9 -6
v 0 7 -6
v 0 8 -6
v 1 7 -6
v 1 8 -6
v 3 7 -6
v 3 9 -6
v 0 7 -8
v 0 8 -8
v 1 7 -8
v 1 8 -8
v -1 8 -9
v -1 9 -9
v 0 8 -9
v 0 9 -9
v -1 9 -10
v -1 10 -10
v 0 9 -10
v 0 10 -10
v -4 0 5
v -2 0 5
v 2 0 5
v 4 0 5
v -4 0 3
v -2 0 3
v 2 0 3
v 4 0 3
v -4 0 -3
v -2 0 -3
v 2 0 -3
v 4 0 -3
v -4 0 -5
v -2 0 -5
v 2 0 -5
v 4 0 -5
v -1 2 -1
v 1 2 -1
v -1 2 -3
v 1 2 -3
v -2 4 4
v 2 4 4
v -3 4 3
v -2 4 3
v 2 4 3
v 3 4 3
v -3 4 1
v -2 4 1
v -3 4 -1
v -2 4 -1
v -1 4 -1
v 1 4 -1
v -3 4 -3
v -2 4 -3
v -1 4 -3
v 1 4 -3
v 2 4 -3
v 3 4 -3
v -2 4 -4
v 2 4 -4
v -2 5 7
v 2 5 7
v -2 5 6
v 2 5 6
v -2 6 5
v 2 6 5
v -2 6 4
v 2 6 4
v -4 6 3
v -3 6 3
v 3 6 3
v 4 6 3
v 3 6 -0
v 4 6 -0
v -4 6 -3
v -3 6 -3
v 3 6 -3
v 4 6 -3
v -2 6 -4
v 2 6 -4
v -2 6 -5
v 2 6 -5
v -1 7 6
v 1 7 6
v -1 7 5
v 1 7 5
v -3 7 -5
v 3 7 -5
v -3 7 -6
v 0 7 -6
v 1 7 -6
v 3 7 -6
v 0 7 -8
v 1 7 -8
v -1 8 -8
v 0 8 -8
v -1 8 -9
v 0 8 -9
v -2 9 8
v 2 9 8
v -2 9 7
v -1 9 7
v 1 9 7
v 2 9 7
v -1 9 6
v 1 9 6
v -1 9 -9
v 0 9 -9
v -1 9 -10
v 0 9 -10
v -3 10 8
v -2 10 8
v 2 10 8
v 3 10 8
v -3 10 7
v -2 10 7
v -1 10 7
v 1 10 7
v 2 10 7
v 3 10 7
v -2 10 6
v -1 10 6
v 1 10 6
v 2 10 6
v -2 10 5
v -1 10 5
v 1 10 5
v 2 10 5
v -2 11 8
v -1 11 8
v 1 11 8
v 2 11 8
v -2 11 7
v -1 11 7
v 1 11 7
v 2 11 7
v -1 11 3
v 1 11 3
v -1 11 2
v 1 11 2
v -4 12 4
v -3 12 4
v -2 12 4
v 2 12 4
v 3 12 4
v 4 12 4
v -4 12 3
v -3 12 3
v -2 12 3
v -1 12 3
v 1 12 3
v 2 12 3
v 3 12 3
v 4 12 3
v -2 12 2
v -1 12 2
v 1 12 2
v 2 12 2
v -2 7 7
v -1 7 7
v 1 7 7
v 2 7 7
v -2 7 6
v -1 7 6
v 1 7 6
v 2 7 6
v -1 8 7
v 1 8 7
v -1 8 6
v 1 8 6
v 0 8 -6
v 1 8 -6
v 0 8 -8
v 1 8 -8
v -4 9 5
v -3 9 5
v 3 9 5
v 4 9 5
v 3 9 3
v 4 9 3
v -4 9 1
v -3 9 1
v -4 9 -0
v -3 9 -0
v 3 9 -0
v 4 9 -0
v -4 9 -4
v -3 9 -4
v -4 9 -5
v -3 9 -5
v -2 9 -5
v 3 9 -5
v 4 9 -5
v -3 9 -6
v -2 9 -6
v 3 9 -6
v -1 9 -8
v 0 9 -8
v -1 9 -9
v 0 9 -9
v -2 10 8
v -1 10 8
v 1 10 8
v 2 10 8
v -2 10 7
v -1 10 7
v 1 10 7
v 2 10 7
v -3 10 5
v -2 10 5
v 2 10 5
v 3 10 5
v -2 10 3
v 2 10 3
v 0 10 1
v 1 10 1
v -1 10 -0
v 0 10 -0
v 1 10 -0
v 2 10 -0
v -1 10 -2
v 0 10 -2
v 1 10 -3
v 2 10 -3
v -3 10 -4
v -2 10 -4
v 0 10 -4
v 1 10 -4
v -3 10 -5
v -2 10 -5
v 3 10 -5
v -1 10 -9
v 0 10 -9
v -1 10 -10
v 0 10 -10
v -3 11 8
v -2 11 8
v 2 11 8
v 3 11 8
v -3 11 7
v -2 11 7
v 2 11 7
v 3 11 7
v -2 12 8
v 2 12 8
v -2 12 7
v -1 12 7
v 1 12 7
v 2 12 7
v -2 13 3
v -1 13 3
v 1 13 3
v 2 13 3
v -2 13 2
v -1 13 2
v 1 13 2
v 2 13 2
v -2 14 7
v 2 14 7
v -2 14 6
v 0 14 6
v 2 14 6
v -4 14 4
v -3 14 4
v -2 14 4
v 2 14 4
v 4 14 4
v -4 14 3
v -3 14 3
v -2 14 3
v -1 14 3
v 1 14 3
v 2 14 3
v 4 14 3
v -1 14 2
v 1 14 2
v -2 15 6
v 0 15 6
v 2 15 6
v 1 15 5
v 2 15 5
v -2 15 4
v -1 15 4
v 0 15 4
v 1 15 4
v 2 15 4
v -1 15 3
v 1 15 3
v -2 16 4
v -1 16 4
v 1 16 4
v 2 16 4
v -2 16 3
v -1 16 3
v 1 16 3
v 2 16 3

# faces
f 5/5/1 2/5/1 1/5/1
f 6/5/1 2/5/1 5/5/1
f 7/7/1 6/7/1 5/7/1
f 8/5/1 2/5/1 6/5/1
f 8/7/1 6/7/1 7/7/1
f 9/5/1 4/5/1 3/5/1
f 10/5/1 4/5/1 9/5/1
f 11/5/1 8/5/1 7/5/1
f 12/5/1 2/5/1 8/5/1
f 12/5/1 8/5/1 11/5/1
f 13/5/1 2/5/1 12/5/1
f 14/5/1 9/5/1 3/5/1
f 15/7/1 10/7/1 9/7/1
f 15/5/1 9/5/1 14/5/1
f 16/7/1 10/7/1 15/7/1
f 17/5/1 13/5/1 12/5/1
f 17/5/1 14/5/1 13/5/1
f 17/5/1 16/5/1 15/5/1
f 17/5/1 15/5/1 14/5/1
f 18/5/1 16/5/1 17/5/1
f 19/7/1 12/7/1 11/7/1
f 20/5/1 17/5/1 12/5/1
f 20/7/1 12/7/1 19/7/1
f 21/7/1 18/7/1 17/7/1
f 22/5/1 16/5/1 18/5/1
f 22/7/1 18/7/1 21/7/1
f 23/5/1 16/5/1 22/5/1
f 24/5/1 16/5/1 23/5/1
f 25/5/1 20/5/1 19/5/1
f 26/7/1 21/7/1 17/7/1
f 26/5/1 20/5/1 25/5/1
f 26/5/1 17/5/1 20/5/1
f 27/5/1 22/5/1 21/5/1
f 27/7/1 21/7/1 26/7/1
f 27/5/1 23/5/1 22/5/1
f 28/7/1 24/7/1 23/7/1
f 28/5/1 23/5/1 27/5/1
f 29/7/1 24/7/1 28/7/1
f 32/5/1 31/5/1 30/5/1
f 33/5/1 31/5/1 32/5/1
f 34/7/1 33/7/1 32/7/1
f 35/7/1 33/7/1 34/7/1
f 40/5/1 37/5/1 36/5/1
f 40/7/1 38/7/1 37/7/1
f 41/5/1 39/5/1 38/5/1
f 41/7/1 38/7/1 40/7/1
f 42/5/1 40/5/1 36/5/1
f 42/5/1 41/5/1 40/5/1
f 43/5/1 39/5/1 41/5/1
f 43/5/1 41/5/1 42/5/1
f 46/5/1 45/5/1 44/5/1
f 47/5/1 45/5/1 46/5/1
f 52/7/1 47/7/1 46/7/1
f 53/7/1 47/7/1 52/7/1
f 56/5/1 51/5/1 50/5/1
f 56/5/1 49/5/1 48/5/1
f 56/5/1 50/5/1 49/5/1
f 57/7/1 52/7/1 51/7/1
f 57/5/1 51/5/1 56/5/1
f 58/7/1 52/7/1 57/7/1
f 59/1/1 55/1/1 54/1/1
f 60/1/1 55/1/1 59/1/1
f 63/3/1 62/3/1 61/3/1
f 64/3/1 62/3/1 63/3/1
f 67/1/1 66/1/1 65/1/1
f 68/1/1 66/1/1 67/1/1
f 73/1/1 69/1/1 68/1/1
f 74/1/1 73/1/1 72/1/1
f 75/1/1 69/1/1 73/1/1
f 75/1/1 73/1/1 74/1/1
f 76/5/1 70/5/1 69/5/1
f 76/1/1 69/1/1 75/1/1
f 76/5/1 71/5/1 70/5/1
f 77/5/1 71/5/1 76/5/1
f 78/5/1 71/5/1 77/5/1
f 80/6/1 76/6/1 75/6/1
f 81/5/1 77/5/1 76/5/1
f 81/6/1 76/6/1 80/6/1
f 82/5/1 77/5/1 81/5/1
f 83/5/1 79/5/1 78/5/1
f 84/5/1 79/5/1 83/5/1
f 85/5/1 82/5/1 81/5/1
f 85/5/1 81/5/1 80/5/1
f 86/5/1 82/5/1 85/5/1
f 87/5/1 82/5/1 86/5/1
f 89/5/1 88/5/1 87/5/1
f 89/5/1 87/5/1 86/5/1
f 90/5/1 88/5/1 89/5/1
f 91/5/1 88/5/1 90/5/1
f 92/2/1 91/2/1 90/2/1
f 93/2/1 91/2/1 92/2/1
f 96/1/1 95/1/1 94/1/1
f 97/1/1 95/1/1 96/1/1
f 101/3/1 99/3/1 98/3/1
f 102/7/1 100/7/1 99/7/1
f 102/3/1 99/3/1 101/3/1
f 103/7/1 100/7/1 102/7/1
f 107/5/1 103/5/1 102/5/1
f 108/4/1 105/4/1 104/4/1
f 109/4/1 105/4/1 108/4/1
f 112/1/1 107/1/1 106/1/1
f 113/5/1 103/5/1 107/5/1
f 113/1/1 107/1/1 112/1/1
f 114/5/1 103/5/1 113/5/1
f 115/7/1 110/7/1 109/7/1
f 116/7/1 110/7/1 115/7/1
f 117/1/1 112/1/1 111/1/1
f 118/1/1 112/1/1 117/1/1
f 121/5/1 120/5/1 119/5/1
f 122/5/1 120/5/1 121/5/1
f 125/5/1 124/5/1 123/5/1
f 126/5/1 124/5/1 125/5/1
f 129/4/1 128/4/1 127/4/1
f 130/4/1 128/4/1 129/4/1
f 133/2/1 132/2/1 131/2/1
f 134/2/1 132/2/1 133/2/1
f 139/5/1 136/5/1 135/5/1
f 140/5/1 136/5/1 139/5/1
f 141/5/1 138/5/1 137/5/1
f 142/5/1 138/5/1 141/5/1
f 143/5/1 139/5/1 135/5/1
f 144/5/1 139/5/1 143/5/1
f 145/5/1 138/5/1 142/5/1
f 146/5/1 138/5/1 145/5/1
f 149/1/1 148/1/1 147/1/1
f 150/1/1 148/1/1 149/1/1
f 151/5/2 152/5/2 155/5/2
f 155/5/2 152/5/2 156/5/2
f 153/5/2 154/5/2 157/5/2
f 157/5/2 154/5/2 158/5/2
f 151/5/2 155/5/2 159/5/2
f 159/5/2 155/5/2 160/5/2
f 158/5/2 154/5/2 161/5/2
f 161/5/2 154/5/2 162/5/2
f 163/1/2 164/1/2 165/1/2
f 165/1/2 164/1/2 166/1/2
f 167/2/2 168/2/2 169/2/2
f 169/2/2 168/2/2 170/2/2
f 171/4/2 172/4/2 173/4/2
f 173/4/2 172/4/2 174/4/2
f 174/7/2 175/7/2 176/7/2
f 176/7/2 175/7/2 177/7/2
f 178/1/2 179/1/2 180/1/2
f 180/1/2 179/1/2 181/1/2
f 182/3/2 183/3/2 187/3/2
f 183/7/2 184/7/2 188/7/2
f 187/3/2 183/3/2 188/3/2
f 188/7/2 184/7/2 189/7/2
f 185/4/2 186/4/2 190/4/2
f 190/4/2 186/4/2 191/4/2
f 188/5/2 189/5/2 193/5/2
f 192/1/2 193/1/2 195/1/2
f 193/5/2 189/5/2 196/5/2
f 195/1/2 193/1/2 196/1/2
f 196/5/2 189/5/2 197/5/2
f 194/1/2 195/1/2 198/1/2
f 198/1/2 195/1/2 199/1/2
f 200/5/2 201/5/2 202/5/2
f 202/5/2 201/5/2 203/5/2
f 204/5/2 205/5/2 206/5/2
f 206/5/2 205/5/2 207/5/2
f 208/3/2 209/3/2 210/3/2
f 210/3/2 209/3/2 211/3/2
f 212/1/2 213/1/2 214/1/2
f 214/1/2 213/1/2 215/1/2
f 215/1/2 216/1/2 220/1/2
f 219/1/2 220/1/2 221/1/2
f 220/1/2 216/1/2 222/1/2
f 221/1/2 220/1/2 222/1/2
f 216/5/2 217/5/2 223/5/2
f 222/1/2 216/1/2 223/1/2
f 217/5/2 218/5/2 223/5/2
f 223/5/2 218/5/2 224/5/2
f 224/5/2 218/5/2 225/5/2
f 222/6/2 223/6/2 227/6/2
f 223/5/2 224/5/2 228/5/2
f 227/6/2 223/6/2 228/6/2
f 228/5/2 224/5/2 229/5/2
f 225/5/2 226/5/2 230/5/2
f 230/5/2 226/5/2 231/5/2
f 228/5/2 229/5/2 232/5/2
f 227/5/2 228/5/2 232/5/2
f 232/5/2 229/5/2 233/5/2
f 233/5/2 229/5/2 234/5/2
f 234/5/2 229/5/2 235/5/2
f 233/7/2 234/7/2 237/7/2
f 235/5/2 236/5/2 238/5/2
f 237/7/2 234/7/2 238/7/2
f 234/5/2 235/5/2 238/5/2
f 238/5/2 236/5/2 239/5/2
f 239/5/2 236/5/2 240/5/2
f 239/2/2 240/2/2 241/2/2
f 241/2/2 240/2/2 242/2/2
f 243/5/2 244/5/2 245/5/2
f 245/5/2 244/5/2 246/5/2
f 246/5/2 244/5/2 247/5/2
f 248/5/2 249/5/2 253/5/2
f 253/5/2 249/5/2 254/5/2
f 251/5/2 252/5/2 257/5/2
f 250/5/2 251/5/2 257/5/2
f 252/5/2 253/5/2 257/5/2
f 257/5/2 253/5/2 258/5/2
f 255/1/2 256/1/2 259/1/2
f 259/1/2 256/1/2 260/1/2
f 261/5/2 262/5/2 265/5/2
f 265/5/2 262/5/2 266/5/2
f 265/7/2 266/7/2 267/7/2
f 266/5/2 262/5/2 268/5/2
f 267/7/2 266/7/2 268/7/2
f 267/5/2 268/5/2 269/5/2
f 268/5/2 262/5/2 269/5/2
f 263/5/2 264/5/2 271/5/2
f 269/5/2 270/5/2 272/5/2
f 270/7/2 271/7/2 272/7/2
f 272/7/2 271/7/2 273/7/2
f 267/5/2 269/5/2 274/5/2
f 269/5/2 272/5/2 274/5/2
f 272/5/2 273/5/2 274/5/2
f 274/5/2 273/5/2 275/5/2
f 273/7/2 271/7/2 276/7/2
f 275/5/2 273/5/2 276/5/2
f 271/5/2 264/5/2 277/5/2
f 276/7/2 271/7/2 277/7/2
f 267/5/2 274/5/2 278/5/2
f 274/7/2 275/7/2 279/7/2
f 278/5/2 274/5/2 279/5/2
f 275/5/2 276/5/2 280/5/2
f 279/7/2 275/7/2 280/7/2
f 276/5/2 277/5/2 280/5/2
f 277/5/2 264/5/2 281/5/2
f 280/5/2 277/5/2 281/5/2
f 282/5/2 283/5/2 284/5/2
f 284/5/2 283/5/2 285/5/2
f 289/1/3 287/1/3 286/1/3
f 290/1/3 287/1/3 289/1/3
f 292/1/3 289/1/3 288/1/3
f 293/1/3 291/1/3 290/1/3
f 294/1/3 292/1/3 288/1/3
f 294/1/3 293/1/3 292/1/3
f 295/1/3 291/1/3 293/1/3
f 295/1/3 293/1/3 294/1/3
f 296/1/3 294/1/3 288/1/3
f 297/1/3 294/1/3 296/1/3
f 298/1/3 291/1/3 295/1/3
f 299/1/3 291/1/3 298/1/3
f 300/1/3 298/1/3 297/1/3
f 301/1/3 298/1/3 300/1/3
f 309/3/3 303/3/3 302/3/3
f 311/1/3 305/1/3 304/1/3
f 312/1/3 305/1/3 311/1/3
f 313/6/3 307/6/3 306/6/3
f 314/5/3 308/5/3 307/5/3
f 314/6/3 307/6/3 313/6/3
f 315/3/3 310/3/3 309/3/3
f 315/3/3 309/3/3 302/3/3
f 316/3/3 310/3/3 315/3/3
f 319/5/3 314/5/3 313/5/3
f 320/5/3 308/5/3 314/5/3
f 320/5/3 314/5/3 319/5/3
f 321/3/3 315/3/3 302/3/3
f 322/3/3 315/3/3 321/3/3
f 323/1/3 318/1/3 317/1/3
f 324/1/3 318/1/3 323/1/3
f 325/6/3 320/6/3 319/6/3
f 326/5/3 308/5/3 320/5/3
f 326/6/3 320/6/3 325/6/3
f 327/5/3 308/5/3 326/5/3
f 332/5/3 329/5/3 328/5/3
f 333/5/3 329/5/3 332/5/3
f 334/5/3 331/5/3 330/5/3
f 335/5/3 331/5/3 334/5/3
f 336/7/3 333/7/3 332/7/3
f 337/7/3 333/7/3 336/7/3
f 344/5/3 339/5/3 338/5/3
f 344/7/3 340/7/3 339/7/3
f 345/5/3 341/5/3 340/5/3
f 345/7/3 340/7/3 344/7/3
f 346/7/3 342/7/3 341/7/3
f 346/5/3 341/5/3 345/5/3
f 347/5/3 343/5/3 342/5/3
f 347/7/3 342/7/3 346/7/3
f 348/5/3 343/5/3 347/5/3
f 350/5/3 346/5/3 345/5/3
f 350/5/3 349/5/3 348/5/3
f 350/5/3 348/5/3 347/5/3
f 350/5/3 347/5/3 346/5/3
f 350/5/3 344/5/3 338/5/3
f 350/5/3 345/5/3 344/5/3
f 351/5/3 349/5/3 350/5/3
f 352/5/3 349/5/3 351/5/3
f 353/5/3 352/5/3 351/5/3
f 354/5/3 352/5/3 353/5/3
f 355/5/3 352/5/3 354/5/3
f 356/5/3 353/5/3 351/5/3
f 360/5/3 356/5/3 351/5/3
f 360/5/3 358/5/3 357/5/3
f 360/5/3 357/5/3 356/5/3
f 361/5/3 358/5/3 360/5/3
f 362/5/3 360/5/3 359/5/3
f 362/5/3 361/5/3 360/5/3
f 363/5/3 361/5/3 362/5/3
f 364/5/3 361/5/3 363/5/3
f 365/5/3 361/5/3 364/5/3
f 366/5/3 362/5/3 359/5/3
f 367/7/3 363/7/3 362/7/3
f 367/5/3 362/5/3 366/5/3
f 368/5/3 364/5/3 363/5/3
f 368/7/3 363/7/3 367/7/3
f 369/5/3 364/5/3 368/5/3
f 373/5/3 371/5/3 370/5/3
f 374/7/3 372/7/3 371/7/3
f 374/5/3 371/5/3 373/5/3
f 375/7/3 372/7/3 374/7/3
f 378/1/3 374/1/3 373/1/3
f 379/5/3 375/5/3 374/5/3
f 379/1/3 374/1/3 378/1/3
f 380/5/3 375/5/3 379/5/3
f 383/2/3 382/2/3 381/2/3
f 384/2/3 382/2/3 383/2/3
f 387/5/3 377/5/3 376/5/3
f 388/5/3 377/5/3 387/5/3
f 392/2/3 386/2/3 385/2/3
f 393/2/3 386/2/3 392/2/3
f 394/1/3 390/1/3 389/1/3
f 395/5/3 391/5/3 390/5/3
f 395/1/3 390/1/3 394/1/3
f 396/5/3 395/5/3 394/5/3
f 397/5/3 391/5/3 395/5/3
f 397/5/3 395/5/3 396/5/3
f 400/1/3 399/1/3 398/1/3
f 401/1/3 399/1/3 400/1/3
f 404/5/3 403/5/3 402/5/3
f 405/5/3 403/5/3 404/5/3
f 406/5/3 404/5/3 402/5/3
f 407/5/3 404/5/3 406/5/3
f 410/5/3 409/5/3 408/5/3
f 412/5/3 410/5/3 408/5/3
f 412/5/3 411/5/3 410/5/3
f 413/5/3 411/5/3 412/5/3
f 416/4/3 415/4/3 414/4/3
f 417/4/3 415/4/3 416/4/3
f 420/7/3 419/7/3 418/7/3
f 421/7/3 419/7/3 420/7/3
f 422/1/4 423/1/4 425/1/4
f 425/1/4 423/1/4 426/1/4
f 424/1/4 425/1/4 427/1/4
f 427/1/4 425/1/4 428/1/4
f 429/1/4 430/1/4 431/1/4
f 431/1/4 430/1/4 432/1/4
f 432/1/4 433/1/4 434/1/4
f 434/1/4 433/1/4 435/1/4
f 436/3/4 437/3/4 438/3/4
f 436/3/4 438/3/4 439/3/4
f 436/3/4 439/3/4 440/3/4
f 440/3/4 439/3/4 441/3/4
f 442/5/4 443/5/4 447/5/4
f 447/5/4 443/5/4 448/5/4
f 444/5/4 445/5/4 449/5/4
f 445/7/4 446/7/4 450/7/4
f 449/5/4 445/5/4 450/5/4
f 450/7/4 446/7/4 451/7/4
f 442/5/4 447/5/4 452/5/4
f 452/5/4 447/5/4 453/5/4
f 449/1/4 450/1/4 455/1/4
f 450/5/4 451/5/4 456/5/4
f 455/1/4 450/1/4 456/1/4
f 456/5/4 451/5/4 457/5/4
f 454/5/4 455/5/4 460/5/4
f 460/5/4 455/5/4 461/5/4
f 456/5/4 457/5/4 462/5/4
f 457/5/4 458/5/4 462/5/4
f 462/5/4 458/5/4 463/5/4
f 458/2/4 459/2/4 464/2/4
f 463/5/4 458/5/4 464/5/4
f 464/2/4 459/2/4 465/2/4
f 454/5/4 460/5/4 466/5/4
f 463/5/4 464/5/4 469/5/4
f 469/5/4 464/5/4 470/5/4
f 466/5/4 467/5/4 474/5/4
f 454/5/4 466/5/4 474/5/4
f 474/5/4 467/5/4 475/5/4
f 468/5/4 469/5/4 476/5/4
f 469/5/4 470/5/4 476/5/4
f 476/5/4 470/5/4 477/5/4
f 470/2/4 471/2/4 478/2/4
f 477/5/4 470/5/4 478/5/4
f 478/2/4 471/2/4 479/2/4
f 472/5/4 473/5/4 480/5/4
f 475/1/4 476/1/4 482/1/4
f 476/5/4 477/5/4 483/5/4
f 482/1/4 476/1/4 483/1/4
f 480/5/4 481/5/4 484/5/4
f 472/5/4 480/5/4 484/5/4
f 484/5/4 481/5/4 485/5/4
f 482/5/4 483/5/4 486/5/4
f 483/5/4 477/5/4 487/5/4
f 486/5/4 483/5/4 487/5/4
f 488/5/4 489/5/4 491/5/4
f 491/5/4 489/5/4 492/5/4
f 490/5/4 491/5/4 494/5/4
f 492/5/4 493/5/4 494/5/4
f 491/5/4 492/5/4 494/5/4
f 494/5/4 493/5/4 495/5/4
f 495/5/4 493/5/4 496/5/4
f 496/5/4 493/5/4 497/5/4
f 495/5/4 496/5/4 498/5/4
f 498/5/4 496/5/4 499/5/4
f 500/1/4 501/1/4 502/1/4
f 502/1/4 501/1/4 503/1/4
f 504/5/4 505/5/4 506/5/4
f 506/5/4 505/5/4 507/5/4
f 508/5/4 509/5/4 513/5/4
f 509/7/4 510/7/4 513/7/4
f 510/5/4 511/5/4 514/5/4
f 513/7/4 510/7/4 514/7/4
f 514/5/4 511/5/4 515/5/4
f 511/7/4 512/7/4 516/7/4
f 515/5/4 511/5/4 516/5/4
f 516/7/4 512/7/4 517/7/4
f 514/5/4 515/5/4 519/5/4
f 508/5/4 513/5/4 519/5/4
f 513/5/4 514/5/4 519/5/4
f 519/5/4 515/5/4 520/5/4
f 517/7/4 518/7/4 521/7/4
f 521/7/4 518/7/4 522/7/4
f 520/5/4 515/5/4 524/5/4
f 524/5/4 515/5/4 525/5/4
f 523/5/4 524/5/4 525/5/4
f 521/5/4 522/5/4 526/5/4
f 526/5/4 522/5/4 527/5/4
f 523/5/4 525/5/4 528/5/4
f 525/5/4 526/5/4 528/5/4
f 528/5/4 526/5/4 529/5/4
f 530/5/4 531/5/4 533/5/4
f 531/7/4 532/7/4 533/7/4
f 533/7/4 532/7/4 534/7/4
f 530/5/4 533/5/4 535/5/4
f 533/5/4 534/5/4 535/5/4
f 535/5/4 534/5/4 536/5/4
f 536/5/4 534/5/4 538/5/4
f 537/5/4 538/5/4 539/5/4
f 538/5/4 534/5/4 540/5/4
f 539/5/4 538/5/4 540/5/4
f 541/4/4 542/4/4 543/4/4
f 543/4/4 542/4/4 544/4/4
f 545/4/4 546/4/4 547/4/4
f 547/4/4 546/4/4 548/4/4
f 549/7/4 550/7/4 551/7/4
f 551/7/4 550/7/4 552/7/4
f 557/5/5 554/5/5 553/5/5
f 558/5/5 554/5/5 557/5/5
f 559/5/5 556/5/5 555/5/5
f 560/5/5 556/5/5 559/5/5
f 565/5/5 562/5/5 561/5/5
f 566/5/5 562/5/5 565/5/5
f 567/5/5 564/5/5 563/5/5
f 568/5/5 564/5/5 567/5/5
f 571/1/5 570/1/5 569/1/5
f 572/1/5 570/1/5 571/1/5
f 576/5/5 574/5/5 573/5/5
f 577/5/5 574/5/5 576/5/5
f 579/5/5 576/5/5 575/5/5
f 579/5/5 578/5/5 577/5/5
f 579/5/5 577/5/5 576/5/5
f 580/5/5 578/5/5 579/5/5
f 581/7/5 580/7/5 579/7/5
f 582/5/5 578/5/5 580/5/5
f 582/7/5 580/7/5 581/7/5
f 583/5/5 578/5/5 582/5/5
f 584/5/5 578/5/5 583/5/5
f 585/5/5 582/5/5 581/5/5
f 585/5/5 583/5/5 582/5/5
f 586/5/5 583/5/5 585/5/5
f 587/5/5 583/5/5 586/5/5
f 588/5/5 578/5/5 584/5/5
f 589/5/5 578/5/5 588/5/5
f 590/5/5 578/5/5 589/5/5
f 591/5/5 587/5/5 586/5/5
f 591/5/5 589/5/5 588/5/5
f 591/5/5 588/5/5 587/5/5
f 592/5/5 589/5/5 591/5/5
f 595/3/5 594/3/5 593/3/5
f 596/3/5 594/3/5 595/3/5
f 599/5/5 598/5/5 597/5/5
f 600/5/5 598/5/5 599/5/5
f 605/5/5 604/5/5 603/5/5
f 606/5/5 604/5/5 605/5/5
f 607/5/5 602/5/5 601/5/5
f 608/5/5 602/5/5 607/5/5
f 609/7/5 606/7/5 605/7/5
f 610/7/5 606/7/5 609/7/5
f 613/5/5 612/5/5 611/5/5
f 614/5/5 612/5/5 613/5/5
f 617/7/5 616/7/5 615/7/5
f 618/7/5 616/7/5 617/7/5
f 621/5/5 620/5/5 619/5/5
f 622/5/5 620/5/5 621/5/5
f 623/5/5 620/5/5 622/5/5
f 624/5/5 620/5/5 623/5/5
f 625/4/5 623/4/5 622/4/5
f 626/4/5 623/4/5 625/4/5
f 629/4/5 628/4/5 627/4/5
f 630/4/5 628/4/5 629/4/5
f 633/1/5 632/1/5 631/1/5
f 634/1/5 632/1/5 633/1/5
f 635/1/5 632/1/5 634/1/5
f 636/1/5 632/1/5 635/1/5
f 637/1/5 635/1/5 634/1/5
f 638/1/5 635/1/5 637/1/5
f 641/7/5 640/7/5 639/7/5
f 642/7/5 640/7/5 641/7/5
f 647/1/5 644/1/5 643/1/5
f 648/1/5 644/1/5 647/1/5
f 651/1/5 646/1/5 645/1/5
f 652/1/5 646/1/5 651/1/5
f 653/1/5 649/1/5 648/1/5
f 654/1/5 649/1/5 653/1/5
f 655/1/5 651/1/5 650/1/5
f 656/1/5 651/1/5 655/1/5
f 657/5/5 654/5/5 653/5/5
f 658/5/5 654/5/5 657/5/5
f 659/5/5 656/5/5 655/5/5
f 660/5/5 656/5/5 659/5/5
f 665/1/5 662/1/5 661/1/5
f 666/1/5 662/1/5 665/1/5
f 667/1/5 664/1/5 663/1/5
f 668/1/5 664/1/5 667/1/5
f 671/5/5 670/5/5 669/5/5
f 672/5/5 670/5/5 671/5/5
f 679/5/5 674/5/5 673/5/5
f 680/1/5 675/1/5 674/1/5
f 680/5/5 674/5/5 679/5/5
f 681/1/5 675/1/5 680/1/5
f 684/1/5 677/1/5 676/1/5
f 685/5/5 678/5/5 677/5/5
f 685/1/5 677/1/5 684/1/5
f 686/5/5 678/5/5 685/5/5
f 687/5/5 682/5/5 681/5/5
f 688/5/5 682/5/5 687/5/5
f 689/5/5 684/5/5 683/5/5
f 690/5/5 684/5/5 689/5/5
f 691/3/6 692/3/6 695/3/6
f 695/3/6 692/3/6 696/3/6
f 693/3/6 694/3/6 697/3/6
f 697/3/6 694/3/6 698/3/6
f 699/3/6 700/3/6 701/3/6
f 701/3/6 700/3/6 702/3/6
f 703/4/6 704/4/6 705/4/6
f 705/4/6 704/4/6 706/4/6
f 709/5/6 710/5/6 711/5/6
f 711/5/6 710/5/6 712/5/6
f 707/5/6 708/5/6 713/5/6
f 713/5/6 708/5/6 714/5/6
f 713/7/6 714/7/6 715/7/6
f 715/7/6 714/7/6 716/7/6
f 711/7/6 712/7/6 717/7/6
f 717/7/6 712/7/6 718/7/6
f 715/5/6 716/5/6 719/5/6
f 719/5/6 716/5/6 720/5/6
f 719/7/6 720/7/6 721/7/6
f 721/7/6 720/7/6 722/7/6
f 717/5/6 718/5/6 724/5/6
f 724/5/6 718/5/6 725/5/6
f 722/7/6 723/7/6 726/7/6
f 723/5/6 724/5/6 727/5/6
f 726/7/6 723/7/6 727/7/6
f 727/5/6 724/5/6 728/5/6
f 729/4/6 730/4/6 731/4/6
f 731/4/6 730/4/6 732/4/6
f 733/1/6 734/1/6 737/1/6
f 737/1/6 734/1/6 738/1/6
f 735/1/6 736/1/6 739/1/6
f 739/1/6 736/1/6 740/1/6
f 741/5/6 742/5/6 745/5/6
f 743/5/6 744/5/6 746/5/6
f 745/5/6 746/5/6 747/5/6
f 747/5/6 746/5/6 748/5/6
f 745/5/6 747/5/6 749/5/6
f 747/7/6 748/7/6 750/7/6
f 749/5/6 747/5/6 750/5/6
f 748/5/6 746/5/6 751/5/6
f 750/7/6 748/7/6 751/7/6
f 746/5/6 744/5/6 752/5/6
f 751/5/6 746/5/6 752/5/6
f 750/7/6 751/7/6 753/7/6
f 749/7/6 750/7/6 753/7/6
f 751/7/6 752/7/6 753/7/6
f 745/5/6 749/5/6 753/5/6
f 753/7/6 752/7/6 754/7/6
f 754/7/6 752/7/6 755/7/6
f 752/5/6 744/5/6 756/5/6
f 755/7/6 752/7/6 756/7/6
f 741/5/6 745/5/6 757/5/6
f 745/5/6 753/5/6 757/5/6
f 753/5/6 754/5/6 757/5/6
f 757/5/6 754/5/6 758/5/6
f 754/7/6 755/7/6 759/7/6
f 758/5/6 754/5/6 759/5/6
f 755/5/6 756/5/6 760/5/6
f 759/7/6 755/7/6 760/7/6
f 757/7/6 758/7/6 761/7/6
f 758/5/6 759/5/6 762/5/6
f 761/7/6 758/7/6 762/7/6
f 759/5/6 760/5/6 762/5/6
f 756/5/6 744/5/6 763/5/6
f 762/5/6 760/5/6 763/5/6
f 760/5/6 756/5/6 763/5/6
f 764/7/6 765/7/6 766/7/6
f 766/7/6 765/7/6 767/7/6
f 768/1/6 769/1/6 772/1/6
f 772/1/6 769/1/6 773/1/6
f 770/1/6 771/1/6 774/1/6
f 774/1/6 771/1/6 775/1/6
f 776/1/6 777/1/6 778/1/6
f 778/1/6 777/1/6 779/1/6
f 779/1/6 777/1/6 780/1/6
f 780/1/6 777/1/6 781/1/6
f 782/5/6 783/5/6 786/5/6
f 786/5/6 783/5/6 787/5/6
f 784/5/6 785/5/6 788/5/6
f 788/5/6 785/5/6 789/5/6
f 790/5/6 791/5/6 792/5/6
f 792/5/6 791/5/6 793/5/6
f 793/5/6 791/5/6 794/5/6
f 795/7/6 796/7/6 800/7/6
f 796/5/6 797/5/6 801/5/6
f 800/7/6 796/7/6 801/7/6
f 801/5/6 797/5/6 802/5/6
f 798/5/6 799/5/6 805/5/6
f 805/5/6 799/5/6 806/5/6
f 803/5/6 804/5/6 807/5/6
f 807/5/6 804/5/6 808/5/6
f 810/7/6 811/7/6 812/7/6
f 812/7/6 811/7/6 813/7/6
f 809/5/6 810/5/6 814/5/6
f 814/5/6 810/5/6 815/5/6
f 810/7/6 812/7/6 816/7/6
f 815/5/6 810/5/6 816/5/6
f 812/5/6 813/5/6 817/5/6
f 816/7/6 812/7/6 817/7/6
f 817/5/6 813/5/6 818/5/6
f 815/5/6 816/5/6 819/5/6
f 816/5/6 817/5/6 819/5/6
f 819/5/6 817/5/6 820/5/6
f 821/2/6 822/2/6 825/2/6
f 825/2/6 822/2/6 826/2/6
f 823/2/6 824/2/6 827/2/6
f 827/2/6 824/2/6 828/2/6
